<?xml version="1.0" encoding="UTF-8" standalone="no"?><!DOCTYPE svg PUBLIC "-//W3C//DTD SVG 1.1//EN" "http://www.w3.org/Graphics/SVG/1.1/DTD/svg11.dtd"><svg width="100%" height="100%" viewBox="0 0 269 269" version="1.1" xmlns="http://www.w3.org/2000/svg" xmlns:xlink="http://www.w3.org/1999/xlink" xml:space="preserve" xmlns:serif="http://www.serif.com/" style="fill-rule:evenodd;clip-rule:evenodd;stroke-linejoin:round;stroke-miterlimit:2;"><path d="M143.255,265.171l80,-80c4.881,-4.881 4.881,-12.797 0,-17.678c-4.882,-4.882 -12.796,-4.882 -17.678,0l-58.661,58.661l0,-213.654c0,-6.903 -5.597,-12.5 -12.5,-12.5c-6.902,0 -12.5,5.597 -12.5,12.5l0,213.654l-58.661,-58.659c-4.882,-4.882 -12.796,-4.882 -17.678,0c-2.439,2.44 -3.661,5.64 -3.661,8.839c0,3.199 1.222,6.398 3.661,8.839l80,79.998c4.882,4.882 12.796,4.882 17.678,0Z" style="fill:#263238;fill-rule:nonzero;"/></svg>